<svg t="1624893340374" class="icon" viewBox="0 0 1029 1024" version="1.1"
  xmlns="http://www.w3.org/2000/svg" p-id="3968" width="30" height="30">
  <path d="M0.026 0h1024v1024H0.026z" fill="#F2F2F2" p-id="3969"></path>
  <path d="M294.938 636.928l74.752-61.44 58.88 59.392 103.936-129.536 76.8 109.056 76.8-77.824 48.128 74.24v57.344l-49.152 66.048H355.866l-49.664-32.768zM338.97 406.528a48.128 48.128 0 1 0 96.256 0 48.128 48.128 0 1 0-96.256 0z" fill="#CCCCCC" p-id="3970"></path>
  <path d="M722.97 471.04v185.344c0 36.864-30.208 67.072-67.072 67.072H368.154c-36.864 0-67.072-30.208-67.072-67.072V368.128c0-36.864 30.208-67.072 67.072-67.072h168.448V281.6H368.154c-47.616 0-86.528 38.912-86.528 86.528v288.256c0 47.616 38.912 86.528 86.528 86.528H656.41c47.616 0 86.528-38.912 86.528-86.528V471.04H722.97zM590.26 305.807l11.586-11.586 128.159 128.164-11.582 11.581z" fill="#CCCCCC" p-id="3971"></path>
  <path d="M718.218 294.006l11.587 11.586L601.64 433.751l-11.581-11.587z" fill="#CCCCCC" p-id="3972"></path>
</svg>
