<svg t="1624625210485" class="icon" viewBox="0 0 1024 1024" version="1.1"
  xmlns="http://www.w3.org/2000/svg" p-id="3084" width="30" height="30">
  <path d="M696.48 786.52h-0.01s0.01 0 0 0c-14.45 0-26.17-11.63-26.34-26.06v-0.08-0.03-0.03-0.04-0.04-0.01-0.04-0.04l-0.01-669.81c0-14.55 11.8-26.35 26.35-26.35s26.35 11.8 26.35 26.35h0.01l-0.01 334.9 0.01 334.91c0 14.57-11.8 26.37-26.35 26.37z" p-id="3085"></path>
  <path d="M933.63 340.71c-0.97 0-1.94-0.05-2.91-0.16L693.56 314.2c-13.34-1.49-23.44-12.76-23.44-26.19V90.36c0-7.5 3.19-14.64 8.78-19.64 5.6-5 13.03-7.41 20.48-6.56l40.72 4.52c125.35 13.94 219.88 119.54 219.88 245.66 0 7.5-3.19 14.64-8.78 19.64a26.28 26.28 0 0 1-17.57 6.73z m-210.8-76.29l182.2 20.25c-13.11-85.68-82.14-153.74-170.74-163.59l-11.46-1.27v144.61zM560.92 960c-38.5 0-73.94-11.37-98.69-32.4-24.1-20.46-36.83-48.46-36.83-80.97 0.01-54.99 41.15-111.2 133.01-112.81 65.2-1.11 138.01 0 138.75 0 14.14 0.22 25.59 11.58 25.93 25.72 1.47 60.81-23.66 180.39-129.19 197.73-11.12 1.83-22.17 2.73-32.98 2.73z m62.63-173.98c-20.29 0-42.68 0.13-64.22 0.5-50.08 0.86-81.21 23.91-81.22 60.12 0 17.02 5.96 30.37 18.23 40.79 19.76 16.79 53.89 23.64 89.02 17.83 62.57-10.28 79.13-80.38 83.5-119.05-12.39-0.1-28.1-0.19-45.31-0.19zM512 308.47H90.37c-14.55 0-26.35-11.8-26.35-26.35s11.8-26.35 26.35-26.35H512c14.55 0 26.35 11.8 26.35 26.35s-11.8 26.35-26.35 26.35zM512 466.58H90.37c-14.55 0-26.35-11.8-26.35-26.35s11.8-26.35 26.35-26.35H512c14.55 0 26.35 11.8 26.35 26.35s-11.8 26.35-26.35 26.35zM512 624.69H90.37c-14.55 0-26.35-11.8-26.35-26.35s11.8-26.35 26.35-26.35H512c14.55 0 26.35 11.8 26.35 26.35s-11.8 26.35-26.35 26.35z" p-id="3086"></path>
</svg>
