<svg t="1624625588707" class="icon" viewBox="0 0 1024 1024" version="1.1"
  xmlns="http://www.w3.org/2000/svg" p-id="13454" width="30" height="30">
  <path d="M111.081239 996.675016h27.147984c22.853986 0 41.590975-18.737989 41.590975-41.591975v-363.389783c5.890996 5.109997 11.639993 10.219994 18.772989 14.868991l609.531637 393.554765c80.555952 51.953969 146.384913 16.21799 146.384912-79.704952V103.528548c0-95.815943-65.828961-131.658922-146.384912-79.669952L198.593187 417.556361c-7.132996 4.612997-12.881992 9.793994-18.772989 14.903991V68.820569c0-22.852986-18.736989-41.589975-41.590975-41.589975H111.080239c-22.853986 0-41.590975 18.701989-41.590975 41.589975v886.227472c0 22.889986 18.701989 41.626975 41.590975 41.626975z" p-id="13455"></path>
</svg>
