<svg t="1624625556885" class="icon" viewBox="0 0 1024 1024" version="1.1"
  xmlns="http://www.w3.org/2000/svg" p-id="13168" width="30" height="30">
  <path d="M912.92 27.334h-27.148c-22.854 0-41.591 18.702-41.591 41.591v363.392c-5.891-5.11-11.64-10.185-18.773-14.87L215.875 23.857C135.318-28.098 69.489 7.638 69.489 103.56v816.886c0 95.817 65.829 131.66 146.386 79.67l609.533-393.698c7.133-4.614 12.882-9.795 18.773-14.87v363.57c0 22.854 18.737 41.591 41.591 41.591h27.148c22.854 0 41.591-18.737 41.591-41.591V68.889c0-22.853-18.737-41.555-41.591-41.555z" p-id="13169"></path>
</svg>
