<svg t="1624625241675" class="icon" viewBox="0 0 1024 1024" version="1.1"
  xmlns="http://www.w3.org/2000/svg" p-id="3888" width="30" height="30">
  <path d="M270.98742675 882.78857422C200.2005168 882.78857422 141.21142578 825.48488527 141.21142578 753.01257325s57.30368895-129.77600098 129.77600098-129.77600098c28.65184411 0 55.61828614 10.11241539 79.21392253 26.96644202l6.74161051 5.0562077V238.96477703c0-25.28103922 20.22483153-45.50587073 43.82046793-45.50587001l433.14847086-50.56207843h3.37080489C860.87834062 141.21142578 882.78857422 161.43625731 882.78857422 186.71729652v487.08135418c0 35.39345461-13.48322102 67.41610433-38.76426024 91.01174074-23.5956364 23.5956364-57.30368895 37.07885742-91.01174073 37.07885743-70.78690995 0-129.77600098-57.30368895-129.77600098-129.77600098 0-70.78690995 57.30368895-129.77600098 129.77600098-129.77600098 28.65184411 0 57.30368895 10.11241539 79.21392253 26.96644204l6.74161051 5.05620769V348.51594649l-438.20467856 47.19127356v357.30535319c-1.68540281 72.47231203-58.98909102 129.77600098-129.77600098 129.77600098z m1e-8-214.04613122c-47.19127282 0-85.95553305 38.76426023-85.95553305 85.95553306s38.76426023 85.95553305 85.95553305 85.95553305 85.95553305-38.76426023 85.95553304-85.95553305c-1.68540281-48.87667563-38.76426023-85.95553305-85.95553304-85.95553306z m482.02514649-80.89932534c-47.19127282 0-85.95553305 38.76426023-85.95553305 85.95553305s38.76426023 85.95553305 85.95553305 85.95553304 85.95553305-38.76426023 85.95553304-85.95553304-38.76426023-85.95553305-85.95553304-85.95553305z m-353.93454833-235.95636555l438.20467856-47.19127282V185.03189371l-433.14847085 50.56207844h-5.05620771v116.29277996z" p-id="3889"></path>
</svg>
