<svg t="1624625935280" class="icon" viewBox="0 0 1024 1024" version="1.1"
  xmlns="http://www.w3.org/2000/svg" p-id="4841" width="30" height="30">
  <path d="M559.36 244.053333l-24.32 123.306667c-5.12 25.173333 1.706667 51.2 17.92 70.826667 16.213333 19.626667 40.106667 31.146667 65.706667 31.146666H853.333333v46.08L743.68 768H398.506667a14.933333 14.933333 0 0 1-14.506667-14.506667V418.986667l175.36-174.933334M597.333333 85.333333L323.84 358.826667C307.626667 375.04 298.666667 396.8 298.666667 419.413333v334.08C298.666667 808.533333 343.466667 853.333333 398.506667 853.333333h345.6c30.293333 0 58.026667-15.786667 73.386666-41.386666l113.92-262.4c4.693333-10.666667 7.253333-22.186667 7.253334-34.133334V469.333333c0-46.933333-38.4-85.333333-85.333334-85.333333h-234.666666l39.253333-198.4c2.133333-9.386667 0.853333-19.626667-3.413333-28.16a204.8 204.8 0 0 0-37.546667-52.053333L597.333333 85.333333zM170.666667 384H85.333333v469.333333h85.333334c23.466667 0 42.666667-19.2 42.666666-42.666666v-384c0-23.466667-19.2-42.666667-42.666666-42.666667z" p-id="4842"></path>
</svg>
