<svg t="1624629035082" class="icon" viewBox="0 0 1024 1024" version="1.1"
  xmlns="http://www.w3.org/2000/svg" p-id="2698" width="30" height="30">
  <path d="M569.898667 275.2c-2.133333-20.736-4.394667-42.24-9.898667-63.744C545.066667 160.085333 503.509333 128 459.008 128c-24.832-0.085333-56.234667 15.189333-74.069333 30.72l-147.626667 123.605333h-77.226667c-56.874667 0-102.570667 43.818667-111.232 107.093334-7.338667 60.757333-9.130667 175.36 0 242.218666 7.936 66.858667 51.626667 110.037333 111.232 110.037334h77.226667l150.485333 125.44c15.445333 13.44 42.666667 28.842667 67.754667 28.842666l4.48 0.042667c45.354667 0 85.333333-33.28 100.266667-84.48 5.674667-21.717333 7.68-42.026667 9.557333-61.653333l0.042667-0.341334 2.005333-19.584c7.68-63.445333 7.68-372.864 0-435.84l-2.005333-18.858666z m172.8 1.92a38.698667 38.698667 0 0 0-54.570667-10.112 40.832 40.832 0 0 0-9.728 55.808c34.218667 50.432 53.034667 117.589333 53.034667 189.184 0 71.552-18.816 138.752-53.034667 189.184a40.789333 40.789333 0 0 0 9.813333 55.808 38.613333 38.613333 0 0 0 54.485334-10.112c43.178667-63.658667 67.029333-147.072 67.029333-234.88s-23.850667-171.221333-67.029333-234.88zM823.04 137.386667a38.613333 38.613333 0 0 1 54.485333 10.069333C944.469333 246.058667 981.333333 375.552 981.333333 512c0 136.533333-36.864 265.984-103.808 364.544a38.485333 38.485333 0 0 1-54.442666 10.069333 40.832 40.832 0 0 1-9.813334-55.808c57.856-85.290667 89.770667-198.528 89.770667-318.805333 0-120.234667-31.914667-233.472-89.813333-318.762667a40.874667 40.874667 0 0 1 9.813333-55.808z" p-id="2699"></path>
</svg>
