<?xml version="1.0" standalone="no"?><!DOCTYPE svg PUBLIC "-//W3C//DTD SVG 1.1//EN" "http://www.w3.org/Graphics/SVG/1.1/DTD/svg11.dtd">
<svg t="1624625079381" class="icon" viewBox="0 0 1063 1024" version="1.1"
  xmlns="http://www.w3.org/2000/svg" p-id="3788"
  xmlns:xlink="http://www.w3.org/1999/xlink" width="31.142578125" height="30">
  <defs>
    <style type="text/css">@font-face { font-family: element-icons; src: url("chrome-extension://moombeodfomdpjnpocobemoiaemednkg/fonts/element-icons.woff") format("woff"), url("chrome-extension://moombeodfomdpjnpocobemoiaemednkg/fonts/element-icons.ttf ") format("truetype"); }
    </style>
  </defs>
  <path d="M125.224682 19.199891C77.223022 41.60073 31.622797 91.999962 14.823375 142.40016c-19.199891 54.399692-19.199891 684.799988 0 739.19968 17.5999 52.000189 62.399647 101.599908 112.799845 123.200269l43.199755 19.199891h691.199952l40.800252-19.199891c47.999728-22.399873 93.599953-72.800071 110.399375-123.200269 19.199891-54.399692 19.199891-684.799988 0-739.19968-16.799422-50.400198-62.399647-100.79943-110.399375-123.200269l-40.800252-19.199891H166.023968L125.223716 19.199891z m570.399186 86.400477c32.800297 13.59944 66.400107 47.200216 66.400108 65.599629s-21.600361 44.800712-36.799792 44.800712c-5.600451 0-24.800342-7.200442-42.400243-16.801353-39.200261-19.999404-56.800161-17.598935-71.999593 9.600911-9.600911 17.5999-10.400424 27.200812-2.400469 53.60018 8.800433 29.59935 12.799928 32.799332 47.999728 41.599764 90.399971 21.600361 151.200593 76.000053 187.199907 167.199537 23.200352 59.200631 25.599855 184.800403 4.00046 244.800546-28.000324 79.999547-105.600368 155.9996-197.599365 191.199401-48.801172 19.200857-147.201098 25.600821-200.800312 12.799928-240.800086-55.999683-364.000355-360.799407-235.199635-580.799611 42.399277-72.800071 157.599591-171.199997 199.998868-171.199997 9.599946 0 24.00083 7.200442 31.200307 15.200397 25.599855 28.000324 12.799928 48.800207-55.999683 97.599448-97.600413 69.600089-140.000656 148.000611-140.000657 258.399986 0 89.600459 33.600775 166.40099 100.800396 228.000159 55.20017 50.400198 99.200404 68.000098 175.999969 68.800576 107.200359 0 183.999925-45.600225 228.799671-136.000196 23.999864-48.800207 24.800342-55.20017 21.600361-123.200269-3.199982-61.600134-6.399964-76.799565-27.200812-109.599863-22.398908-36.000279-91.199484-85.599998-103.198933-74.400061-2.400469 3.199982 2.399504 33.59981 11.999449 68.000098 8.800433 34.400288 15.999909 69.600089 15.99991 78.399556 0 64.801082-50.399232 132.000702-111.199854 148.800124-103.199899 28.000324-187.199906-51.19971-187.199906-176.800448 0-87.199024 43.200721-152.799618 123.200268-188.798932l28.799837-12.799928-3.199982-68.800576c-3.999495-62.399647-2.399504-71.20008 13.600406-91.999962 39.199295-48.800207 103.199899-66.400107 157.599591-43.200721z" fill="#D81E06" p-id="3789"></path>
  <path d="M509.223475 415.200065c-25.599855 15.999909-51.19971 65.600594-51.199711 101.599908 0 30.399828 20.799882 72.800071 39.999774 83.200495 35.200766 19.199891 88.000468-13.600406 88.000468-54.400658 0-11.999449-6.399964-49.599719-13.600406-84.000008-15.999909-67.999132-21.600361-71.999593-63.200125-46.399737z" fill="#D81E06" p-id="3790"></path>
</svg>
